{"title":"Clive Barkers Rawhead Rex (1986) - DVDRip (AC-3)  [akhiugo]","uid":4732009,"size":838248448,"categoryP":"video","categoryS":"movies","magnet":"?xt=urn:btih:5fe1dab9c203d5703c50dcd90eca9931a1600d41&amp;dn=Clive+Barkers+Rawhead+Rex+%281986%29+-+DVDRip+%28AC-3%29++%5Bakhiugo%5D&amp;tr=udp%3A%2F%2Ftracker.openbittorrent.com%3A80&amp;tr=udp%3A%2F%2Fopen.demonii.com%3A1337&amp;tr=udp%3A%2F%2Ftracker.coppersurfer.tk%3A6969&amp;tr=udp%3A%2F%2Fexodus.desync.com%3A6969","seeders":2,"leechers":1,"uploader":"akhiugo","files":-1,"time":1235078783,"description":"Release Date: January 1st, 1986\n\n---------------------------------\n\nDirected: George Pavlou  \nWritten:  Clive Barker\nStarring: David Dukes, Kelly Piper, Cora Venus Lunny, Ronan Wilmot, Niall ToibÃƒÂ­n\n\n---------------------------------------------------------------------------------\n\nRawhead Rex was an ancient and powerful demon who was once worshipped as a god in pre-Christian Ireland. His reign of terror was eventually ended, and he was imprisoned beneath a massive stone in a lonely field. All has been safe for hundreds of years until one lone farmer clearing his field removes a large stone, and the rampage begins anew.\n\n----------------------------------------------------------------------------------\n\nGeneral\nComplete name                    : Rawhead Rex (1986) -  [akhiugo].avi\nFormat                           : AVI\nFormat/Info                      : Audio Video Interleave\nFile size                        : 799 MiB\nDuration                         : 1h 25mn\nOverall bit rate                 : 1 304 Kbps\nWriting application              : VirtualDubMod 1.5.4.1 (build 2178/release)\nWriting library                  : VirtualDubMod build 2178/release\n\nVideo\nFormat                           : MPEG-4 Visual\nFormat profile                   : Streaming Video@L1\nFormat settings, BVOP            : Yes\nFormat settings, QPel            : No\nFormat settings, GMC             : No warppoints\nFormat settings, Matrix          : Custom\nCodec ID                         : XVID\nCodec ID/Hint                    : XviD\nDuration                         : 1h 25mn\nBit rate                         : 1 073 Kbps\nWidth                            : 512 pixels\nHeight                           : 384 pixels\nDisplay aspect ratio             : 4/3\nFrame rate                       : 25.000 fps\nResolution                       : 24 bits\nColorimetry                      : 4:2:0\nScan type                        : Progressive\nBits/(Pixel*Frame)               : 0.218\nStream size                      : 658 MiB (82%)\nWriting library                  : XviD 1.2.1 (UTC 2008-12-04)\n\nAudio\nFormat                           : AC-3\nFormat/Info                      : Audio Coding 3\nCodec ID                         : 2000\nDuration                         : 1h 25mn\nBit rate mode                    : Constant\nBit rate                         : 224 Kbps\nChannel(s)                       : 2 channels\nChannel positions                : L R\nSampling rate                    : 48.0 KHz\nStream size                      : 137 MiB (17%)\nAlignment                        : Aligned on interleaves\nInterleave, duration             : 96 ms (2.40 video frames)\nInterleave, preload duration     : 96 ms\n\n\nPlease help your fellow pirates by seeding after download!","torrent":{"xt":"urn:btih:5fe1dab9c203d5703c50dcd90eca9931a1600d41","amp;dn":"Clive+Barkers+Rawhead+Rex+%281986%29+-+DVDRip+%28AC-3%29++%5Bakhiugo%5D","amp;tr":["udp%3A%2F%2Ftracker.openbittorrent.com%3A80","udp%3A%2F%2Fopen.demonii.com%3A1337","udp%3A%2F%2Ftracker.coppersurfer.tk%3A6969","udp%3A%2F%2Fexodus.desync.com%3A6969"],"infoHash":"5fe1dab9c203d5703c50dcd90eca9931a1600d41","infoHashBuffer":{"type":"Buffer","data":[95,225,218,185,194,3,213,112,60,80,220,217,14,202,153,49,161,96,13,65]},"announce":[],"urlList":[]}}